<?xml version="1.0" standalone="no"?>
<!DOCTYPE svg PUBLIC "-//W3C//DTD SVG 20010904//EN"
 "http://www.w3.org/TR/2001/REC-SVG-20010904/DTD/svg10.dtd">
<svg version="1.0" xmlns="http://www.w3.org/2000/svg"
 width="1024.000000pt" height="1024.000000pt" viewBox="0 0 1024.000000 1024.000000"
 preserveAspectRatio="xMidYMid meet">

<g transform="translate(0.000000,1024.000000) scale(0.100000,-0.100000)"
fill="#000000" stroke="none">
<path d="M4975 9760 c-263 -20 -559 -102 -820 -229 -548 -267 -964 -737 -1190
-1346 -146 -391 -178 -857 -94 -1345 66 -378 213 -789 404 -1125 297 -524 695
-925 1145 -1154 226 -116 366 -145 695 -145 250 0 359 13 503 60 273 89 612
319 870 589 783 820 1119 2117 800 3083 -73 221 -243 537 -395 734 -182 235
-410 430 -691 588 -373 209 -836 319 -1227 290z"/>
<path d="M6791 4598 c-340 -325 -701 -540 -1090 -652 -183 -53 -255 -61 -551
-61 -449 0 -660 45 -984 207 -245 123 -447 264 -691 482 -77 69 -145 126 -151
126 -14 0 -593 -222 -771 -296 -746 -309 -1372 -660 -1667 -934 -121 -112
-189 -237 -279 -515 -104 -316 -169 -566 -194 -737 -16 -115 -16 -119 5 -203
94 -382 539 -736 1257 -1002 66 -24 136 -50 155 -57 73 -28 412 -127 570 -166
639 -160 1382 -264 2155 -301 476 -23 1329 -3 1785 41 1647 160 2971 645 3372
1234 160 234 164 401 23 891 -97 336 -185 563 -266 682 -143 212 -416 401
-1029 715 -452 231 -801 383 -1319 577 l-213 79 -117 -110z"/>
</g>
</svg>
